<?xml version="1.0" standalone="no"?>
<!DOCTYPE svg PUBLIC "-//W3C//DTD SVG 20010904//EN"
 "http://www.w3.org/TR/2001/REC-SVG-20010904/DTD/svg10.dtd">
<svg version="1.0" xmlns="http://www.w3.org/2000/svg"
 width="192.000000pt" height="192.000000pt" viewBox="0 0 192.000000 192.000000"
 preserveAspectRatio="xMidYMid meet">
<metadata>
Created by potrace 1.14, written by Peter Selinger 2001-2017
</metadata>
<g transform="translate(0.000000,192.000000) scale(0.100000,-0.100000)"
fill="#000000" stroke="none">
<path d="M703 1720 c-15 -9 -38 -28 -50 -41 -25 -28 -88 -159 -97 -206 -5 -22
-14 -33 -32 -37 -55 -14 -198 -110 -267 -180 -98 -98 -164 -216 -193 -343 -16
-69 -16 -229 0 -297 51 -218 232 -363 501 -402 22 -3 56 -9 75 -13 75 -16 422
-21 565 -8 286 26 479 110 577 252 59 86 77 143 85 277 18 297 -140 552 -434
697 -57 29 -62 34 -79 83 -90 277 -260 312 -360 75 -12 -28 -27 -53 -32 -55
-6 -2 -25 27 -42 64 -34 70 -71 118 -105 137 -32 17 -81 16 -112 -3z"/>
</g>
</svg>
